<?xml version="1.0" encoding="utf-8"?>
<!-- Generator: Adobe Illustrator 27.1.0, SVG Export Plug-In . SVG Version: 6.00 Build 0)  -->
<svg version="1.1" id="Ebene_1" xmlns="http://www.w3.org/2000/svg" xmlns:xlink="http://www.w3.org/1999/xlink" x="0px" y="0px"
	 viewBox="0 0 360.6 90.3" style="enable-background:new 0 0 360.6 90.3;" xml:space="preserve">
<style type="text/css">
	.st0{fill:#62B32B;}
	.st1{fill:#EC6501;}
</style>
<polygon class="st0" points="45.2,0 29.2,15.9 63.7,18.5 "/>
<polygon class="st0" points="0,45.2 12.3,57.5 18.5,26.7 "/>
<polygon class="st0" points="19.6,64.7 45.2,90.3 90.3,45.2 80.3,35.2 "/>
<polygon class="st1" points="88.6,25.4 25.1,20.7 16.9,60.4 "/>
<path class="st0" d="M179.6,59.6c-1,1.6-3.6,3.4-8.1,3.5c-6.5,0-8.6-4.3-8.8-9.3l38.9,0c0.9-2.9,0.9-5.6,0.9-8.2
	C202.1,30.8,187.4,25,175.3,25c-13.6,0-32.5,7.2-32,28.8c0.3,11.5,8.3,20.8,27.6,20.7c23.6-0.1,27.4-11.8,28.7-15H179.6z
	 M164.3,44.5c1.5-5,5.1-7.9,10.6-7.9c5.3,0,8,2.8,8,6.3c0,0.5-0.1,1.1-0.2,1.5L164.3,44.5z"/>
<path class="st0" d="M230.2,40.5c1.1-3.5,3.9-4.8,8.1-4.8c3.1,0,6.5,0.8,6.6,4.1c0.1,5.8-9.2,5.1-15,5.5
	c-15.5,1.1-26.1,4.4-25.8,16.9c0.2,9,8.6,12.5,17.9,12.5c6.1,0,13-2,16.6-5.8h0.2c-0.1,1.5,0.3,3,0.9,4.5h20.3
	c-0.8-1.8-0.9-2.8-0.9-4.2c-0.1-3.1,6-24.3,5.8-31.6C264.4,26,247.9,25,238.1,25c-13.3,0-24.4,2.9-27.3,15.5H230.2z M224.7,59.9
	c-0.1-3.5,3.1-5,6.6-5.3c3.8-0.3,7.6-0.7,10.9-2.1c-1.1,7-3.8,11.5-10.8,11.5C228.1,63.9,224.8,63.1,224.7,59.9"/>
<path class="st0" d="M274.5,25.7l20.1-0.1l-1.3,6.2l0.2,0c4.1-4.5,10-7.4,16.9-7.5c7.1,0,13.4,2,14.9,7.8c4.4-5,10.3-7.6,17.5-7.6
	c10.6,0,17.5,4.2,17.8,14c0.1,2.2-0.7,5.4-1.1,7.5l-5.9,27.1l-20.8,0l5-22.6c0.2-0.9,1.1-5.6,1.1-7c-0.1-3-2-4.9-5.4-4.9
	c-4.1,0-7,2-7.7,5.5l-6.5,28.9h-20.8l5.7-25.6c0.3-1.2,0.8-3.1,0.7-4.4c-0.1-3-2-4.4-5.3-4.4c-5.1,0-7.7,3-8.5,7.1l-6,27.2
	l-20.8,0.1L274.5,25.7z"/>
<path class="st0" d="M128,52.2l3.4-16l11.3,0l2.4-10.4l-11.5,0l2.7-12.7L104.1,29l-1.4,7.2h7.4l-4.5,20.6c-0.5,2.2-1.1,4-1,6.6
	c0.1,3.5,2.4,7.3,6.1,9c4.2,1.9,9.1,1.8,13.6,1.7c3.9-0.2,7.8-0.8,11.5-1.4l2.8-13.2c-1.7,0.1-3.6,0.3-7,0.4c-3.4,0-4.4-1.2-4.4-2.8
	C127.2,55.4,127.7,53.7,128,52.2"/>
</svg>
